<svg xmlns="http://www.w3.org/2000/svg" xmlns:xlink="http://www.w3.org/1999/xlink" version="1.1" x="0px" y="0px" viewBox="0 0 50 62.5" style="enable-background:new 0 0 50 50;" xml:space="preserve"><g><path d="M46.4,17.9c-0.4-0.3-0.8-0.5-1.4-0.7c-2.4-0.9-18.1-2.5-24.3-0.1h0c-0.1,0.1-0.5,0.3,0.4,0.2c-1.8,0.7-10.5,5.1-10.6,5.1   s0.3,0.2-0.8-0.3c0,0-7.2,1.5-8.1,3.6c-0.9,2.1-0.7,5.1-0.1,5.5C2,31.7,5,32,5.6,32c0.1,0,0.1,0,0.1,0L5.9,32   c-0.2-0.5-0.2-1-0.2-1.5c0-2.6,2.1-4.7,4.7-4.7c3.3,0,5.5,3.3,4.3,6.3h22.7c0.1-0.1,0.2-0.2,0.2-0.2c-1-3,1.3-6.1,4.4-6.1   c2.6,0,4.7,2.1,4.7,4.7c0,0.4-0.1,0.8-0.2,1.2c0.7-0.1,2.1-0.4,2.3-1C49.1,29.8,49.7,20.2,46.4,17.9z M2.4,30.8   c-0.2,0.1-1.1-0.3-1.1-0.3l-0.1-1.5c0.2,0.2,0.7,0.2,0.9,0.2C2.4,29.3,2.6,30.7,2.4,30.8z M5.7,24.3c0,0.1-0.6,0.5-1.1,0.9   c-0.1,0-1.5,0-1.5,0c-0.4,0-0.9,1.4-0.6,1.6h0.7C3.1,26.9,2.9,27,2.8,27C2.6,27,2,27.1,1.5,27c-0.5-0.1,0.4-1.4,0.5-1.5   C2.5,25.2,4,24,5,23.9C5.9,23.9,5.7,24.2,5.7,24.3z M15.4,22.5l-2.9,0.1c0,0,1-1.2,3.3-2.5l-0.6,2.3H15.4z M25.4,24.5h-0.2   c-0.3,0-0.5-0.2-0.6-0.4H26C25.9,24.4,25.6,24.5,25.4,24.5z M24.6,23.7c0.1-0.2,0.3-0.4,0.6-0.4h0.2c0.3,0,0.5,0.2,0.6,0.4H24.6z    M26.6,22L26.6,22l-8.5,0.3c0,0,0,0,0,0h0c0.3-0.1,0.2-0.5,0.2-0.8c-0.1-0.4-0.1-0.8-0.6-0.7c-0.5,0.1-1.3,0.7-1,1.2   c-0.1,0.1-0.2,0.3-0.4,0.5h0l-0.3,0l0.6-2.7c4.2-2.2,5.9-2.9,10.9-3.3L26.6,22z M36.2,23.8h1.4C37.4,24.4,36.4,24.4,36.2,23.8z    M36.2,23.4c0.1-0.2,0.3-0.4,0.6-0.4H37c0.3,0,0.5,0.2,0.6,0.4H36.2z M28.4,21.9l0.5-5.5c2.4-0.1,6,0.1,8.4,0.3l1.5,4.7L28.4,21.9z    M40.3,21.5l-1.6-4.6c2.7,0.2,5.2,0.5,6.1,0.9c1.7,0.7,2.4,1.7,2.8,3.3L40.3,21.5z"/><path d="M42,26.8c-2,0-3.7,1.6-3.7,3.7s1.6,3.7,3.7,3.7s3.7-1.6,3.7-3.7S44,26.8,42,26.8z M40.3,28.6c0.4,0.5,0.7,1,1,1.5   c0,0.1-0.1,0.1-0.1,0.1c-0.6,0.2-1.2,0.4-1.8,0.5C39.4,30,39.7,29.2,40.3,28.6z M41.4,32.9c-0.8-0.2-1.4-0.6-1.7-1.3   c0.6-0.2,1.1-0.5,1.6-0.7c0.1,0.1,0.1,0.1,0.2,0.2C41.6,31.7,41.5,32.3,41.4,32.9z M42,29.7c-0.3-0.5-0.6-1-0.9-1.6   c0.6-0.2,1.3-0.2,1.9,0.1c-0.3,0.5-0.6,1-0.9,1.5C42.1,29.8,42.1,29.8,42,29.7z M42.3,33c0-0.6,0-1.2,0-1.8c0.1,0,0.2-0.1,0.2-0.2   c0.6,0.2,1.1,0.5,1.7,0.7C43.8,32.3,43.1,32.8,42.3,33z M44.4,30.8c-0.6-0.2-1.2-0.4-1.8-0.5c0,0,0-0.1,0-0.1   c0.4-0.5,0.7-1,1.1-1.5c0.5,0.5,0.8,1.1,0.8,1.8C44.5,30.6,44.5,30.7,44.4,30.8z"/><path d="M10.3,26.8c-2,0-3.7,1.6-3.7,3.7s1.6,3.7,3.7,3.7c2,0,3.7-1.6,3.7-3.7S12.3,26.8,10.3,26.8z M8.6,28.6   c0.4,0.5,0.7,1,1.1,1.5c0,0.1-0.1,0.1-0.1,0.1c-0.6,0.2-1.2,0.4-1.8,0.5C7.7,30,8,29.2,8.6,28.6z M9.8,32.9   c-0.8-0.2-1.4-0.6-1.7-1.3c0.5-0.2,1.1-0.5,1.6-0.7c0.1,0.1,0.1,0.1,0.2,0.2C9.9,31.7,9.8,32.3,9.8,32.9z M10.3,29.7   c-0.3-0.5-0.6-1-0.9-1.6c0.6-0.2,1.3-0.2,1.9,0.1c-0.3,0.5-0.6,1-0.9,1.5C10.4,29.8,10.4,29.8,10.3,29.7z M10.7,33   c0-0.6,0-1.2,0-1.8c0.1,0,0.2-0.1,0.2-0.2c0.6,0.2,1.1,0.5,1.6,0.7C12.1,32.3,11.5,32.8,10.7,33z M12.8,30.8   c-0.6-0.2-1.2-0.4-1.8-0.5c0,0,0-0.1,0-0.1c0.4-0.5,0.7-1,1.1-1.5c0.5,0.5,0.8,1.1,0.8,1.8C12.8,30.6,12.8,30.7,12.8,30.8z"/></g><text x="0" y="65" fill="#000000" font-size="5px" font-weight="bold" font-family="'Helvetica Neue', Helvetica, Arial-Unicode, Arial, Sans-serif">Created by Vectors Market</text><text x="0" y="70" fill="#FFFF" font-size="5px" font-weight="bold" font-family="'Helvetica Neue', Helvetica, Arial-Unicode, Arial, Sans-serif">from the Noun Project</text></svg>