<svg xmlns="http://www.w3.org/2000/svg" xmlns:xlink="http://www.w3.org/1999/xlink" version="1.1" x="0px" y="0px" viewBox="0 0 50 62.5" style="enable-background:new 0 0 50 50;" xml:space="preserve"><g><path d="M9,24.9c-1.9,0-3.5,1.6-3.5,3.5c0,1.9,1.6,3.5,3.5,3.5c1.9,0,3.5-1.6,3.5-3.5C12.5,26.4,10.9,24.9,9,24.9z M7.4,26.6   c0.4,0.5,0.7,0.9,1,1.4c0,0-0.1,0.1-0.1,0.1c-0.6,0.2-1.1,0.3-1.7,0.5C6.5,27.9,6.8,27.1,7.4,26.6z M8.5,30.7   c-0.7-0.2-1.3-0.6-1.6-1.3c0.5-0.2,1-0.4,1.6-0.6c0.1,0.1,0.1,0.1,0.2,0.2C8.6,29.5,8.5,30.1,8.5,30.7z M9,27.6   c-0.3-0.5-0.6-1-0.9-1.5c0.6-0.2,1.3-0.2,1.9,0c-0.3,0.5-0.5,1-0.9,1.5C9.1,27.7,9.1,27.7,9,27.6z M9.4,30.7c0-0.6,0-1.2,0-1.7   c0.1,0,0.2-0.1,0.2-0.2c0.5,0.2,1,0.4,1.6,0.7C10.8,30.1,10.1,30.6,9.4,30.7z M11.4,28.6c-0.6-0.2-1.1-0.4-1.7-0.5c0,0,0-0.1,0-0.1   c0.4-0.5,0.7-1,1-1.4c0.4,0.4,0.7,1,0.7,1.7C11.4,28.4,11.4,28.6,11.4,28.6z"/><path d="M38.8,24.9c-1.9,0-3.5,1.6-3.5,3.5c0,1.9,1.6,3.5,3.5,3.5s3.5-1.6,3.5-3.5C42.3,26.4,40.7,24.9,38.8,24.9z M37.2,26.6   c0.3,0.5,0.7,0.9,1,1.4c0,0-0.1,0.1-0.1,0.1c-0.6,0.2-1.1,0.3-1.7,0.5C36.3,27.9,36.6,27.1,37.2,26.6z M38.3,30.7   c-0.7-0.2-1.3-0.6-1.6-1.3c0.5-0.2,1-0.4,1.6-0.6c0.1,0.1,0.1,0.1,0.2,0.2C38.4,29.5,38.3,30.1,38.3,30.7z M38.8,27.6   c-0.3-0.5-0.6-1-0.9-1.5c0.6-0.2,1.3-0.2,1.9,0c-0.3,0.5-0.6,1-0.9,1.5C38.9,27.7,38.9,27.7,38.8,27.6z M39.1,30.7   c0-0.6,0-1.2,0-1.7c0.1,0,0.1-0.1,0.2-0.2c0.5,0.2,1,0.4,1.6,0.7C40.5,30.1,39.9,30.6,39.1,30.7z M41.1,28.6   c-0.6-0.2-1.1-0.4-1.7-0.5c0,0,0-0.1,0-0.1c0.4-0.5,0.7-1,1-1.4c0.4,0.4,0.7,1,0.7,1.7C41.2,28.4,41.2,28.6,41.1,28.6z"/><path d="M48.8,24.1c-0.3-0.5-0.7-0.5-0.8-0.8c0-0.2-0.1-1.3,0-1.5c0.1-0.2,0.2-0.4-0.2-0.4c-0.4,0-1.4,0.1-2,0.2   c-2.6,0.5-9.6-3.5-14.1-3.5c-5.1,0-6.8-0.1-9.9,0.6l0.1,0.2c0,0-4.7,2.4-5.6,3.1c0,0-1.4,0.1-1.6-0.1c-0.1-0.1,0.2-0.5-0.3-0.5   c-3.3,0.2-11,0.7-12.9,3.2l1-0.2l0.8-0.1L3,25.5c-0.1,0.2-0.3,0.3-0.4,0.4c-0.3,0.1-0.9,0.3-1.2,0.2c0.1,0.3-0.5,0.3-0.3,1   c0,0.2,0.1,0.4,0.1,0.6h0.7l0.3,1.3H1.3c0,0,0,0,0,0.1c-0.1,0.1-0.4,0.4-0.1,0.6c0.3,0.2,0.7,0,0.8,0.1C2,29.8,2.1,30,2.3,30h2.5   c-0.2-0.5-0.3-1.1-0.3-1.7c0-2.5,2-4.5,4.5-4.5c2.5,0,4.5,2,4.5,4.5c0,0.7-0.1,1.3-0.4,1.9c12.4-0.1,21.1,0,21.4-0.4   c-0.2-0.5-0.3-1-0.3-1.5c0-2.5,2-4.5,4.5-4.5c2.5,0,4.5,2,4.5,4.5c0,0.4-0.1,0.8-0.2,1.2c0.2,0,1.4-0.1,2.6-0.3c0,0,0,0,0,0   c0.2,0,3.1,0.2,3.1-2.3h0C49.1,25.8,49,24.4,48.8,24.1z M2.7,28.6c-0.2,0-0.4-0.3-0.4-0.8c0-0.4,0-0.8,0.2-0.8   c0.2,0,0.4,0.3,0.4,0.8C2.9,28.2,2.8,28.6,2.7,28.6z M35.1,21.1l-3.9,0.7c1.4,2.3-0.1,5.3-1.9,7.2c-3.4,0-8.8,0.1-12.3,0.2   c0-0.1-1.2-2.9,0-7c0.1,0,0.7-0.3,0.7-0.3v0c3.7-2,5.1-2.5,5.2-2.6c0.3-0.1,0.7-0.2,1.1-0.2c2.2-0.2,4.5-0.2,6.7-0.1v2.8l0.5,0V19   c1.9,0.2,2.6,0.5,4.1,1.8C35.3,20.9,35.3,21.1,35.1,21.1z M47.8,22.5l0.1,0.8l0.4,0.4h-0.4l-0.2-0.3l-0.1-0.2c0-0.1-0.1-0.9,0-0.8   L47.8,22.5z M47.1,23.7c0-0.1-0.4-0.5-0.7-1.3l0.7,0L47.1,23.7L47.1,23.7z M47.4,28.4c-0.1-0.1-0.1-0.3,0.1-0.6   c0.2-0.3,0.4-0.4,0.5-0.3c0.1,0.1,0.1,0.3-0.1,0.6C47.7,28.3,47.5,28.5,47.4,28.4z M48.5,28c-0.2,0.3-0.4,0.4-0.5,0.3   c-0.1-0.1-0.1-0.3,0.1-0.6c0.2-0.3,0.4-0.4,0.5-0.3C48.7,27.5,48.6,27.7,48.5,28z"/><path d="M30.6,21.8c-0.2,0-2.8,0.1-12.7,0.4l-0.5,0.3c-0.1,0.5-0.8,3.7,0,6.3L29,28.6C32.7,24.3,30.6,21.9,30.6,21.8z M30.2,23.6   l-1.7-0.1c-0.1,0-0.2-0.1-0.2-0.2v0c0-0.1,0.1-0.2,0.3-0.2l1.7,0.1c0.1,0,0.2,0.1,0.2,0.3C30.5,23.5,30.4,23.6,30.2,23.6z"/></g><text x="0" y="65" fill="#000000" font-size="5px" font-weight="bold" font-family="'Helvetica Neue', Helvetica, Arial-Unicode, Arial, Sans-serif">Created by Vectors Market</text><text x="0" y="70" fill="#000000" font-size="5px" font-weight="bold" font-family="'Helvetica Neue', Helvetica, Arial-Unicode, Arial, Sans-serif">from the Noun Project</text></svg>