<svg xmlns="http://www.w3.org/2000/svg" xmlns:xlink="http://www.w3.org/1999/xlink" version="1.1" x="0px" y="0px" viewBox="0 0 50 62.5" style="enable-background:new 0 0 50 50;" xml:space="preserve"><g><path d="M5.4,21.2c0,0.3,0.2,0.5,0.4,0.5h20.3v-5.5H6.4c-0.2,0-0.4,0.2-0.4,0.4L5.4,21.2z"/><path d="M48.8,29.9l0-3.4l-0.5-0.3h-2.8l0-0.2h1.3c0.4,0,0.7-0.3,0.7-0.7c0-0.4-0.3-0.7-0.7-0.7h-1.4l0-0.3h2.4   c-0.1-0.4-0.3-0.7-0.5-0.9c-0.7-0.4-4.7-2-5.1-2.3c-0.1,0-1.5,0.1-1.5,0.1C36.6,17.5,34,16,34,16l0.4-0.1c-3-1.8-29.9-1.2-30.3-1.2   c-0.2,0-1-0.1-0.7,0.6c0,0-1.8,4.6-2.1,8.3l0.1,0.3h0.8c0.1,0,0.3,0.1,0.3,0.3v2.1c0,0.1-0.1,0.3-0.3,0.3H1.3v0l-0.2,0.3   C1,30.9,1,30.6,1,30.7C1.2,32,1.5,32,2,32.1c0.8,0.2,2.2,0.5,2.7,0.6c-0.1-0.3-0.1-0.7-0.1-1c0-2.6,2.1-4.7,4.7-4.7   s4.7,2.1,4.7,4.7c0,0.3-0.1,0.8-0.2,1.3c13.5,0,9.4,0,22.9,0c-0.2-0.5-0.2-1.1-0.2-1.2c-0.2-2.5,2-4.8,4.7-4.8   c2.7,0,4.7,2.2,4.7,4.7c0,0.4-0.1,0.8-0.2,1.1c0.6,0.1,2.9,0.3,3.1-2.1C49,30.4,48.9,29.9,48.8,29.9z M27,22.1H5.4   c-0.5,0-0.8-0.4-0.8-0.9l0.6-4.9c0-0.4,0.4-0.7,0.8-0.7h21V22.1z M28.5,23.7c-0.2,0-0.2-0.1-0.2-0.2c-0.1,0-0.2,0-0.2,0   c-0.2,0-0.3-0.1-0.3-0.3c0-0.2,0.1-0.3,0.3-0.3c0,0,0.1,0,0.2,0c0-0.1,0-0.2,0.2-0.2c0.8,0,2,0.5,2,0.5S29.2,23.7,28.5,23.7z    M37,21.7L37,21.7c0-0.4,0-0.5-0.1-0.8c-0.2-0.3-0.6-0.6-0.9-0.8c-0.2-0.1-0.4-0.2-0.5,0.1c0,1.1-0.5,1.3-0.4,1.5l-6.2-0.1   l-0.4-4.8c2.5,0,4.5,0.3,5.4,0.8c1.4,0.9,4.6,4,4.7,4.1C38.5,21.7,37,21.7,37,21.7z"/><path d="M41.3,28c-2.3,0-4,2.2-3.7,3.9c0.1,2,1.7,3.5,3.7,3.5c2,0,3.7-1.6,3.7-3.7v-0.1C45,29.6,43.4,28,41.3,28z M43.8,31.8   c0,1.3-1.1,2.4-2.5,2.4c-1.3,0-2.4-1-2.5-2.3c-0.2-1.2,0.9-2.7,2.5-2.7C42.7,29.2,43.8,30.3,43.8,31.8L43.8,31.8z"/><path d="M41.3,31c-0.4,0-0.7,0.3-0.7,0.7c0,0.4,0.4,0.7,0.7,0.7c0.4,0,0.7-0.3,0.7-0.7C42,31.3,41.7,31,41.3,31z"/><path d="M9.3,28c-2.1,0-3.7,1.7-3.7,3.7c0,2,1.7,3.7,3.7,3.7c2.1,0,3.7-1.7,3.7-3.7C13.1,29.6,11.4,28,9.3,28z M11.9,31.8   c-0.1,1.3-1.2,2.4-2.5,2.4c-1.4,0-2.5-1.1-2.5-2.4v-0.1c0-1.4,1.1-2.5,2.5-2.5s2.5,1.1,2.5,2.5V31.8z"/><path d="M9.3,31c-0.4,0-0.7,0.3-0.7,0.7c0,0,0,0.1,0,0.1c0.1,0.3,0.4,0.6,0.7,0.6s0.7-0.3,0.7-0.6c0,0,0-0.1,0-0.1   C10.1,31.3,9.7,31,9.3,31z"/></g><text x="0" y="65" fill="#000000" font-size="5px" font-weight="bold" font-family="'Helvetica Neue', Helvetica, Arial-Unicode, Arial, Sans-serif">Created by Vectors Market</text><text x="0" y="70" fill="#000000" font-size="5px" font-weight="bold" font-family="'Helvetica Neue', Helvetica, Arial-Unicode, Arial, Sans-serif">from the Noun Project</text></svg>