<svg xmlns="http://www.w3.org/2000/svg" xmlns:xlink="http://www.w3.org/1999/xlink" version="1.1" x="0px" y="0px" viewBox="0 0 50 62.5" style="enable-background:new 0 0 50 50;" xml:space="preserve"><g><g><path d="M4.8,22c-0.7-0.5-1.5-0.8-1.9-1l-0.4,0.8c0,0.3-0.1,1.5-0.2,2.2C3.4,23.5,4.4,22.4,4.8,22z"/><path d="M49,28c0-0.5-1.1-1.8-1.2-2c0,0,0,0,0,0c0-0.2-0.1-0.9-2.4-2.4c-1.2-0.8-2.2-1-3.2-1.2c-4.3-0.8-0.7-0.1-12.1-4.8    C17.6,13.3,3.4,17,2.9,17.1c0.2,0.5-0.2,2.8-0.3,3.5c0,0,1.4,0.4,2.6,1.3c0,0-1.5,2-3.3,2.4c0,0.4-0.4,0.9-0.4,0.9    S1.2,27.7,1,29.5c-0.2,1.3,1.1,1.9,2.4,2c-0.2-3,2-5,4.5-5c2.5,0,4.5,2,4.5,4.5c0,0.5-0.1,0.9-0.2,1.3l0.1,0    c24.5,0,20.8,0.1,23.7,0c-0.1-0.4-0.2-0.9-0.2-1.3c0-2.5,2-4.5,4.5-4.5c2.9,0,5.1,2.8,4.4,5.6c1.1-0.1,2.9-0.4,3.2-0.5    c0.4-0.1,0.3-0.5,0.3-0.6S49,28.5,49,28z M28.2,17.5c0.6,0.2,1.2,0.4,1.8,0.6l0.9,4.5c-2.8-0.2-6.2-0.5-9.4-0.8l-1-5.5    C23.2,16.4,25.4,16.7,28.2,17.5z M13,16.3c2.2-0.2,3.8-0.1,5.8-0.1l0.6,5.4c-2.7-0.2-5.2-0.4-7-0.6c-0.1-0.6-0.3-1.7-0.3-2.2    C12.2,18.3,12.7,17,13,16.3z M34.3,22.9c1.1,3-0.1,5.5-0.2,6.7c-0.1,1-0.7,1.4-1.4,1.4h-0.1c-0.2,0-18.1,0-18.8-0.2    c-0.7-0.2-0.8-0.4-1.1-1.4c-0.1-0.2-0.1-2-3-3.6c-1.1-0.6-0.9-3.3-0.9-3.6l0.5-1.5c-0.8-0.2-3.1-0.8-3.2-1.5    c-0.1-0.6-0.4-1.7,0.4-1.9c0.5-0.1,2.7-0.6,5.4-0.9l-1.5,4.5c-0.2,0-0.4,0-0.5-0.1l-0.6,1.5c0,0.9,0,2.7,0.6,3    c3.1,1.8,3.1,3.7,3.2,3.9c0.3,1,0.3,1,0.7,1.1c0.1,0,1.1,0.1,6.4,0.1c1.1-6.9-0.1-6.7-1-14.3l0.5-0.1l0.9,5.5    c0.1,0,1.1,2.7,0.2,8.8c4.8,0,10.6,0.1,11.6,0.1c0.1,0,1,0.2,1.1-0.9c0.1-1.3,1.3-3.7,0.1-6.6l-0.1-0.2c0.1-0.8,0.1-0.8,0.1-0.7    v-0.3c0-0.6-0.5-1-1-1c-0.5,0-0.9,0.4-0.9,0.8v0.1c0,0.5,0.4,0.9,0.9,0.9h0.1c0,0.1-0.1,0.1,0,0.3c-0.5,0-1-0.1-1.6-0.1    c-0.7-0.9-0.1-2.3,0.3-2.5l-0.3-1.6c2.8,1.1,5,2.2,5,2.2l1,2.4C37.1,23.1,36,23,34.3,22.9z M44.3,25c-0.5-0.2-1.9-1.9-2-2.1    c-0.1-0.1,0.1-0.2,0.2-0.3c1.1,0.2,2,0.5,2.8,1.1c2,1.3,2.1,2,2.1,2.1C46.5,25.7,44.7,25.1,44.3,25z"/><path d="M7.9,27.5c-4.6,0-4.6,7,0,7c1.9,0,3.5-1.6,3.5-3.5S9.9,27.5,7.9,27.5z M6.3,29.2c0.3,0.5,0.7,0.9,1,1.4    c0,0-0.1,0.1-0.1,0.1c-0.6,0.1-1.1,0.3-1.7,0.5C5.5,30.6,5.7,29.8,6.3,29.2z M7.4,33.4c-0.7-0.1-1.3-0.6-1.6-1.3    c0.5-0.2,1-0.4,1.6-0.6c0.1,0.1,0.1,0.1,0.2,0.2C7.5,32.2,7.5,32.8,7.4,33.4z M7.9,30.3c-0.3-0.5-0.6-1-0.9-1.5    c0.6-0.2,1.3-0.2,1.9,0.1c-0.3,0.5-0.5,1-0.9,1.5C8,30.3,8.1,30.3,7.9,30.3z M8.3,33.4c0-0.6,0-1.2,0-1.7c0.1,0,0.2-0.1,0.2-0.2    c0.5,0.2,1,0.4,1.6,0.6C9.7,32.8,9,33.3,8.3,33.4z M10.3,31.3c-0.6-0.2-1.1-0.3-1.7-0.5c0,0,0-0.1,0-0.1c0.4-0.5,0.7-0.9,1-1.4    C10.2,29.9,10.3,30.6,10.3,31.3z"/><path d="M40.3,27.5c-1.9,0-3.5,1.6-3.5,3.5s1.6,3.5,3.5,3.5s3.5-1.6,3.5-3.5S42.3,27.5,40.3,27.5z M38.7,29.2    c0.3,0.5,0.7,0.9,1,1.4c0,0-0.1,0.1-0.1,0.1c-0.6,0.1-1.1,0.3-1.7,0.5C37.9,30.6,38.1,29.8,38.7,29.2z M39.8,33.4    c-0.7-0.1-1.3-0.6-1.6-1.3c0.5-0.2,1-0.4,1.6-0.6c0.1,0.1,0.1,0.1,0.2,0.2C39.9,32.2,39.9,32.8,39.8,33.4z M40.3,30.3    c-0.3-0.5-0.6-1-0.9-1.5c0.6-0.2,1.3-0.2,1.9,0.1c-0.3,0.5-0.6,1-0.9,1.5C40.4,30.3,40.5,30.3,40.3,30.3z M40.7,33.4    c0-0.6,0-1.2,0-1.7c0.1,0,0.1-0.1,0.2-0.2c0.5,0.2,1,0.4,1.6,0.6C42.1,32.8,41.5,33.3,40.7,33.4z M42.7,31.3    c-0.6-0.2-1.1-0.3-1.7-0.5c0,0,0-0.1,0-0.1c0.4-0.5,0.7-0.9,1-1.4c0.4,0.4,0.7,1,0.7,1.7C42.7,31.1,42.7,31.2,42.7,31.3z"/></g><path d="M7.9,27.5c-4.6,0-4.6,7,0,7c1.9,0,3.5-1.6,3.5-3.5S9.9,27.5,7.9,27.5z M6.3,29.2c0.3,0.5,0.7,0.9,1,1.4   c0,0-0.1,0.1-0.1,0.1c-0.6,0.2-1.1,0.3-1.7,0.5C5.5,30.6,5.7,29.8,6.3,29.2z M7.4,33.4c-0.7-0.2-1.3-0.6-1.6-1.3   c0.5-0.2,1-0.4,1.6-0.6c0.1,0.1,0.1,0.1,0.2,0.2C7.5,32.2,7.5,32.8,7.4,33.4z M7.9,30.3c-0.3-0.5-0.6-1-0.9-1.5   c0.6-0.2,1.3-0.2,1.9,0c-0.3,0.5-0.5,1-0.9,1.5C8,30.3,8.1,30.3,7.9,30.3z M8.3,33.4c0-0.6,0-1.2,0-1.7c0.1,0,0.1-0.1,0.2-0.1   c0.5,0.2,1,0.4,1.6,0.6C9.7,32.8,9,33.3,8.3,33.4z M10.3,31.3c-0.6-0.2-1.1-0.4-1.7-0.5c0,0,0-0.1,0-0.1c0.4-0.5,0.7-0.9,1-1.4   C10.1,29.8,10.4,30.5,10.3,31.3z"/></g><text x="0" y="65" fill="#000000" font-size="5px" font-weight="bold" font-family="'Helvetica Neue', Helvetica, Arial-Unicode, Arial, Sans-serif">Created by Vectors Market</text><text x="0" y="70" fill="#000000" font-size="5px" font-weight="bold" font-family="'Helvetica Neue', Helvetica, Arial-Unicode, Arial, Sans-serif">from the Noun Project</text></svg>